<mxfile host="app.diagrams.net" modified="2023-05-03T17:12:55.287Z" agent="Mozilla/5.0 (Windows NT 10.0; Win64; x64) AppleWebKit/537.36 (KHTML, like Gecko) Chrome/112.0.0.0 Safari/537.36 Edg/112.0.1722.64" etag="hgPwziCQTZMR8cuRns2W" version="21.2.7" type="device">
  <diagram id="C5RBs43oDa-KdzZeNtuy" name="Page-1">
    <mxGraphModel dx="496" dy="1978" grid="1" gridSize="10" guides="1" tooltips="1" connect="1" arrows="1" fold="1" page="1" pageScale="1" pageWidth="827" pageHeight="1169" math="0" shadow="0">
      <root>
        <mxCell id="WIyWlLk6GJQsqaUBKTNV-0" />
        <mxCell id="WIyWlLk6GJQsqaUBKTNV-1" parent="WIyWlLk6GJQsqaUBKTNV-0" />
        <mxCell id="WIyWlLk6GJQsqaUBKTNV-6" value="i=&amp;lt;10" style="rhombus;whiteSpace=wrap;html=1;shadow=0;fontFamily=Helvetica;fontSize=12;align=center;strokeWidth=1;spacing=6;spacingTop=-4;" parent="WIyWlLk6GJQsqaUBKTNV-1" vertex="1">
          <mxGeometry x="150" y="163" width="166" height="100" as="geometry" />
        </mxCell>
        <mxCell id="WIyWlLk6GJQsqaUBKTNV-11" value="fin" style="rounded=1;whiteSpace=wrap;html=1;fontSize=12;glass=0;strokeWidth=1;shadow=0;" parent="WIyWlLk6GJQsqaUBKTNV-1" vertex="1">
          <mxGeometry x="220" y="565" width="120" height="40" as="geometry" />
        </mxCell>
        <mxCell id="YfWPqulsZnc-Vri8WOen-9" value="" style="edgeStyle=orthogonalEdgeStyle;rounded=0;orthogonalLoop=1;jettySize=auto;html=1;" parent="WIyWlLk6GJQsqaUBKTNV-1" source="1Cm5-BtH0BtdrAK7_OAe-0" target="YfWPqulsZnc-Vri8WOen-8" edge="1">
          <mxGeometry relative="1" as="geometry" />
        </mxCell>
        <mxCell id="1Cm5-BtH0BtdrAK7_OAe-0" value="suma = suma + n" style="rounded=0;whiteSpace=wrap;html=1;" parent="WIyWlLk6GJQsqaUBKTNV-1" vertex="1">
          <mxGeometry x="180" y="435" width="120" height="60" as="geometry" />
        </mxCell>
        <mxCell id="1Cm5-BtH0BtdrAK7_OAe-7" value="" style="endArrow=classic;html=1;rounded=0;exitX=0.5;exitY=1;exitDx=0;exitDy=0;" parent="WIyWlLk6GJQsqaUBKTNV-1" source="WIyWlLk6GJQsqaUBKTNV-6" target="jgLLW5TrSUxowUwKjPBB-1" edge="1">
          <mxGeometry width="50" height="50" relative="1" as="geometry">
            <mxPoint x="390" y="300" as="sourcePoint" />
            <mxPoint x="440" y="250" as="targetPoint" />
          </mxGeometry>
        </mxCell>
        <mxCell id="1Cm5-BtH0BtdrAK7_OAe-8" value="yes" style="text;strokeColor=none;align=center;fillColor=none;html=1;verticalAlign=middle;whiteSpace=wrap;rounded=0;" parent="WIyWlLk6GJQsqaUBKTNV-1" vertex="1">
          <mxGeometry x="247" y="260" width="60" height="30" as="geometry" />
        </mxCell>
        <mxCell id="1Cm5-BtH0BtdrAK7_OAe-9" value="" style="endArrow=classic;html=1;rounded=0;" parent="WIyWlLk6GJQsqaUBKTNV-1" source="YfWPqulsZnc-Vri8WOen-8" target="WIyWlLk6GJQsqaUBKTNV-6" edge="1">
          <mxGeometry width="50" height="50" relative="1" as="geometry">
            <mxPoint x="390" y="300" as="sourcePoint" />
            <mxPoint x="440" y="250" as="targetPoint" />
            <Array as="points">
              <mxPoint x="500" y="465" />
              <mxPoint x="500" y="210" />
            </Array>
          </mxGeometry>
        </mxCell>
        <mxCell id="1Cm5-BtH0BtdrAK7_OAe-13" value="" style="endArrow=classic;html=1;rounded=0;" parent="WIyWlLk6GJQsqaUBKTNV-1" source="WIyWlLk6GJQsqaUBKTNV-6" target="jgLLW5TrSUxowUwKjPBB-7" edge="1">
          <mxGeometry width="50" height="50" relative="1" as="geometry">
            <mxPoint x="70" y="320" as="sourcePoint" />
            <mxPoint x="120" y="270" as="targetPoint" />
            <Array as="points">
              <mxPoint x="60" y="210" />
              <mxPoint x="60" y="570" />
            </Array>
          </mxGeometry>
        </mxCell>
        <mxCell id="1Cm5-BtH0BtdrAK7_OAe-14" value="no" style="text;html=1;strokeColor=none;fillColor=none;align=center;verticalAlign=middle;whiteSpace=wrap;rounded=0;" parent="WIyWlLk6GJQsqaUBKTNV-1" vertex="1">
          <mxGeometry x="53" y="262" width="60" height="30" as="geometry" />
        </mxCell>
        <mxCell id="jgLLW5TrSUxowUwKjPBB-0" value="inicio" style="rounded=1;whiteSpace=wrap;html=1;" parent="WIyWlLk6GJQsqaUBKTNV-1" vertex="1">
          <mxGeometry x="174" y="-70" width="120" height="50" as="geometry" />
        </mxCell>
        <mxCell id="jgLLW5TrSUxowUwKjPBB-1" value="&quot;Dame un numeros enteros&quot;" style="shape=parallelogram;perimeter=parallelogramPerimeter;whiteSpace=wrap;html=1;fixedSize=1;" parent="WIyWlLk6GJQsqaUBKTNV-1" vertex="1">
          <mxGeometry x="174" y="302" width="120" height="60" as="geometry" />
        </mxCell>
        <mxCell id="jgLLW5TrSUxowUwKjPBB-5" value="" style="endArrow=classic;html=1;rounded=0;" parent="WIyWlLk6GJQsqaUBKTNV-1" source="jgLLW5TrSUxowUwKjPBB-1" target="w-JIu5bDIwzaphR7VitU-1" edge="1">
          <mxGeometry width="50" height="50" relative="1" as="geometry">
            <mxPoint x="390" y="260" as="sourcePoint" />
            <mxPoint x="233.30769230769226" y="377" as="targetPoint" />
          </mxGeometry>
        </mxCell>
        <mxCell id="jgLLW5TrSUxowUwKjPBB-6" value="" style="endArrow=classic;html=1;rounded=0;exitX=0.5;exitY=1;exitDx=0;exitDy=0;" parent="WIyWlLk6GJQsqaUBKTNV-1" source="w-JIu5bDIwzaphR7VitU-1" target="1Cm5-BtH0BtdrAK7_OAe-0" edge="1">
          <mxGeometry width="50" height="50" relative="1" as="geometry">
            <mxPoint x="235.0588235294117" y="417" as="sourcePoint" />
            <mxPoint x="440" y="330" as="targetPoint" />
          </mxGeometry>
        </mxCell>
        <mxCell id="jgLLW5TrSUxowUwKjPBB-7" value="&quot;la suma de los numeros dados es =&quot; m" style="shape=document;whiteSpace=wrap;html=1;boundedLbl=1;" parent="WIyWlLk6GJQsqaUBKTNV-1" vertex="1">
          <mxGeometry x="20" y="490" width="120" height="80" as="geometry" />
        </mxCell>
        <mxCell id="jgLLW5TrSUxowUwKjPBB-8" value="" style="endArrow=classic;html=1;rounded=0;entryX=0;entryY=0.875;entryDx=0;entryDy=0;entryPerimeter=0;" parent="WIyWlLk6GJQsqaUBKTNV-1" source="jgLLW5TrSUxowUwKjPBB-7" target="WIyWlLk6GJQsqaUBKTNV-11" edge="1">
          <mxGeometry width="50" height="50" relative="1" as="geometry">
            <mxPoint x="390" y="440" as="sourcePoint" />
            <mxPoint x="440" y="390" as="targetPoint" />
            <Array as="points">
              <mxPoint x="80" y="600" />
            </Array>
          </mxGeometry>
        </mxCell>
        <mxCell id="jgLLW5TrSUxowUwKjPBB-9" value="" style="endArrow=classic;html=1;rounded=0;" parent="WIyWlLk6GJQsqaUBKTNV-1" source="jgLLW5TrSUxowUwKjPBB-0" target="YfWPqulsZnc-Vri8WOen-4" edge="1">
          <mxGeometry width="50" height="50" relative="1" as="geometry">
            <mxPoint x="510" y="240" as="sourcePoint" />
            <mxPoint x="234" y="10" as="targetPoint" />
          </mxGeometry>
        </mxCell>
        <mxCell id="jgLLW5TrSUxowUwKjPBB-10" value="&lt;ol style=&quot;padding: 0px; margin: 0px 0px 10px 2.5em; color: rgb(101, 101, 101); font-family: &amp;quot;Century Gothic&amp;quot;, Arial, Helvetica, sans-serif; font-size: 14px; text-align: left; background-color: rgb(255, 255, 255);&quot; id=&quot;yui_3_17_2_1_1683094139225_116&quot;&gt;&lt;li style=&quot;line-height: 20px;&quot; id=&quot;yui_3_17_2_1_1683094139225_115&quot;&gt;Realiza un diagrama de flujo para obtener la suma de diez cantidades mediante la utilización de un ciclo “Mientras”.&lt;/li&gt;&lt;/ol&gt;" style="text;html=1;strokeColor=none;fillColor=none;align=center;verticalAlign=middle;whiteSpace=wrap;rounded=0;" parent="WIyWlLk6GJQsqaUBKTNV-1" vertex="1">
          <mxGeometry x="275" y="90" width="505" height="41" as="geometry" />
        </mxCell>
        <mxCell id="YfWPqulsZnc-Vri8WOen-2" value="" style="edgeStyle=orthogonalEdgeStyle;rounded=0;orthogonalLoop=1;jettySize=auto;html=1;" parent="WIyWlLk6GJQsqaUBKTNV-1" source="YfWPqulsZnc-Vri8WOen-1" target="WIyWlLk6GJQsqaUBKTNV-6" edge="1">
          <mxGeometry relative="1" as="geometry" />
        </mxCell>
        <mxCell id="YfWPqulsZnc-Vri8WOen-1" value="i=1" style="rounded=0;whiteSpace=wrap;html=1;" parent="WIyWlLk6GJQsqaUBKTNV-1" vertex="1">
          <mxGeometry x="220" y="96.5" width="30" height="28" as="geometry" />
        </mxCell>
        <mxCell id="YfWPqulsZnc-Vri8WOen-7" style="edgeStyle=orthogonalEdgeStyle;rounded=0;orthogonalLoop=1;jettySize=auto;html=1;entryX=0.25;entryY=0;entryDx=0;entryDy=0;" parent="WIyWlLk6GJQsqaUBKTNV-1" source="YfWPqulsZnc-Vri8WOen-4" target="YfWPqulsZnc-Vri8WOen-1" edge="1">
          <mxGeometry relative="1" as="geometry" />
        </mxCell>
        <mxCell id="YfWPqulsZnc-Vri8WOen-4" value="suma=0" style="rounded=0;whiteSpace=wrap;html=1;" parent="WIyWlLk6GJQsqaUBKTNV-1" vertex="1">
          <mxGeometry x="180" width="120" height="60" as="geometry" />
        </mxCell>
        <mxCell id="YfWPqulsZnc-Vri8WOen-8" value="i=i+1" style="rounded=0;whiteSpace=wrap;html=1;" parent="WIyWlLk6GJQsqaUBKTNV-1" vertex="1">
          <mxGeometry x="350" y="435" width="120" height="60" as="geometry" />
        </mxCell>
        <mxCell id="w-JIu5bDIwzaphR7VitU-1" value="n" style="rounded=0;whiteSpace=wrap;html=1;fontSize=16;" vertex="1" parent="WIyWlLk6GJQsqaUBKTNV-1">
          <mxGeometry x="208" y="380" width="54" height="35" as="geometry" />
        </mxCell>
      </root>
    </mxGraphModel>
  </diagram>
</mxfile>
